<svg width="119" height="118" viewBox="0 0 119 118" fill="none" xmlns="http://www.w3.org/2000/svg">
<path d="M82.8342 17.5033V9.83331C82.8342 7.81748 81.1625 6.14581 79.1467 6.14581C77.1309 6.14581 75.4592 7.81748 75.4592 9.83331V17.2083H43.5009V9.83331C43.5009 7.81748 41.8292 6.14581 39.8134 6.14581C37.7975 6.14581 36.1259 7.81748 36.1259 9.83331V17.5033C22.8509 18.7325 16.41 26.6483 15.4267 38.3991C15.3284 39.825 16.5084 41.005 17.885 41.005H101.075C102.501 41.005 103.681 39.7758 103.533 38.3991C102.55 26.6483 96.1092 18.7325 82.8342 17.5033Z" fill="url(#paint0_linear_16_240)"/>
<path d="M93.8968 73.75C83.0309 73.75 74.2301 82.5508 74.2301 93.4167C74.2301 97.1042 75.2626 100.595 77.0818 103.545C80.4743 109.248 86.7184 113.083 93.8968 113.083C101.075 113.083 107.319 109.248 110.712 103.545C112.531 100.595 113.563 97.1042 113.563 93.4167C113.563 82.5508 104.763 73.75 93.8968 73.75ZM104.074 91.3025L93.6018 100.988C92.9134 101.628 91.9793 101.972 91.0943 101.972C90.1601 101.972 89.2259 101.628 88.4884 100.89L83.6209 96.0225C82.1951 94.5967 82.1951 92.2367 83.6209 90.8108C85.0468 89.385 87.4068 89.385 88.8326 90.8108L91.1926 93.1708L99.0593 85.8942C100.534 84.5175 102.894 84.6158 104.271 86.0908C105.648 87.5658 105.549 89.8767 104.074 91.3025Z" fill="url(#paint1_linear_16_240)"/>
<path d="M98.8134 48.3798H20.1468C17.4426 48.3798 15.2301 50.5923 15.2301 53.2965V83.5832C15.2301 98.3332 22.6051 108.166 39.8134 108.166H64.0526C67.4451 108.166 69.8051 104.872 68.7234 101.676C67.7401 98.8248 66.9043 95.6782 66.9043 93.4165C66.9043 78.519 79.0484 66.3748 93.9459 66.3748C95.3718 66.3748 96.7976 66.4732 98.1743 66.719C101.124 67.1615 103.779 64.8507 103.779 61.9007V53.3457C103.73 50.5923 101.518 48.3798 98.8134 48.3798ZM45.7626 89.5323C44.8284 90.4173 43.5501 90.9582 42.2718 90.9582C40.9934 90.9582 39.7151 90.4173 38.7809 89.5323C37.8959 88.5981 37.3551 87.3198 37.3551 86.0415C37.3551 84.7632 37.8959 83.4848 38.7809 82.5507C39.2726 82.1082 39.7643 81.764 40.4034 81.5182C42.2226 80.7315 44.3859 81.174 45.7626 82.5507C46.6476 83.4848 47.1884 84.7632 47.1884 86.0415C47.1884 87.3198 46.6476 88.5981 45.7626 89.5323ZM45.7626 72.324C45.5168 72.5207 45.2709 72.7173 45.0251 72.914C44.7301 73.1107 44.4351 73.2582 44.1401 73.3565C43.8451 73.504 43.5501 73.6023 43.2551 73.6515C42.9109 73.7007 42.5668 73.7498 42.2718 73.7498C40.9934 73.7498 39.7151 73.209 38.7809 72.324C37.8959 71.3898 37.3551 70.1115 37.3551 68.8332C37.3551 67.5548 37.8959 66.2765 38.7809 65.3423C39.9118 64.2115 41.6326 63.6707 43.2551 64.0148C43.5501 64.064 43.8451 64.1623 44.1401 64.3098C44.4351 64.4082 44.7301 64.5557 45.0251 64.7523C45.2709 64.949 45.5168 65.1457 45.7626 65.3423C46.6476 66.2765 47.1884 67.5548 47.1884 68.8332C47.1884 70.1115 46.6476 71.3898 45.7626 72.324ZM62.9709 72.324C62.0368 73.209 60.7584 73.7498 59.4801 73.7498C58.2018 73.7498 56.9234 73.209 55.9893 72.324C55.1043 71.3898 54.5634 70.1115 54.5634 68.8332C54.5634 67.5548 55.1043 66.2765 55.9893 65.3423C57.8576 63.5232 61.1518 63.5232 62.9709 65.3423C63.8559 66.2765 64.3968 67.5548 64.3968 68.8332C64.3968 70.1115 63.8559 71.3898 62.9709 72.324Z" fill="url(#paint2_linear_16_240)"/>
<defs>
<linearGradient id="paint0_linear_16_240" x1="15.421" y1="23.5754" x2="103.546" y2="23.5754" gradientUnits="userSpaceOnUse">
<stop stop-color="#B224EF"/>
<stop offset="1" stop-color="#7579FF"/>
</linearGradient>
<linearGradient id="paint1_linear_16_240" x1="74.2301" y1="93.4167" x2="113.563" y2="93.4167" gradientUnits="userSpaceOnUse">
<stop stop-color="#B224EF"/>
<stop offset="1" stop-color="#7579FF"/>
</linearGradient>
<linearGradient id="paint2_linear_16_240" x1="15.2301" y1="78.2732" x2="103.779" y2="78.2732" gradientUnits="userSpaceOnUse">
<stop stop-color="#B224EF"/>
<stop offset="1" stop-color="#7579FF"/>
</linearGradient>
</defs>
</svg>
