<svg width="119" height="118" viewBox="0 0 119 118" fill="none" xmlns="http://www.w3.org/2000/svg">
<path d="M104.959 90.8108L96.8468 92.7283C95.0276 93.1708 93.6018 94.5475 93.2084 96.3666L91.4876 103.594C90.5534 107.527 85.5384 108.757 82.9326 105.659L68.2318 88.7458C67.0518 87.3691 67.6909 85.2058 69.4609 84.7633C78.1634 82.6491 85.9809 77.7816 91.7334 70.8491C92.6676 69.7183 94.3393 69.5708 95.3718 70.6033L106.287 81.5183C110.023 85.255 108.696 89.9258 104.959 90.8108Z" fill="url(#paint0_linear_16_229)"/>
<path d="M13.7553 90.8108L21.8678 92.7283C23.687 93.1708 25.1128 94.5475 25.5061 96.3666L27.227 103.594C28.1611 107.527 33.1761 108.757 35.782 105.659L50.4828 88.7458C51.6628 87.3691 51.0236 85.2058 49.2536 84.7633C40.5511 82.6491 32.7336 77.7816 26.9811 70.8491C26.047 69.7183 24.3753 69.5708 23.3428 70.6033L12.4278 81.5183C8.69113 85.255 10.0186 89.9258 13.7553 90.8108Z" fill="url(#paint1_linear_16_229)"/>
<path d="M59.4801 9.83331C40.4526 9.83331 25.0634 25.2225 25.0634 44.25C25.0634 51.3792 27.1776 57.9183 30.8159 63.3758C36.1259 71.2425 44.5334 76.7983 54.3176 78.2242C55.9893 78.5191 57.7101 78.6666 59.4801 78.6666C61.2501 78.6666 62.971 78.5191 64.6426 78.2242C74.4268 76.7983 82.8343 71.2425 88.1443 63.3758C91.7826 57.9183 93.8968 51.3792 93.8968 44.25C93.8968 25.2225 78.5076 9.83331 59.4801 9.83331ZM74.5251 43.1683L70.4443 47.2491C69.7559 47.9375 69.3626 49.265 69.6085 50.2483L70.7884 55.3125C71.7226 59.295 69.6084 60.8683 66.0685 58.7542L61.1518 55.8533C60.2668 55.3125 58.7918 55.3125 57.9068 55.8533L52.9901 58.7542C49.4501 60.8191 47.3359 59.295 48.2701 55.3125L49.4501 50.2483C49.6468 49.3142 49.3026 47.9375 48.6143 47.2491L44.4351 43.1683C42.0259 40.7591 42.8126 38.35 46.1559 37.8091L51.4168 36.9241C52.3018 36.7766 53.3343 35.99 53.7276 35.2033L56.6284 29.4016C58.2018 26.255 60.7584 26.255 62.3318 29.4016L65.2326 35.2033C65.6259 35.99 66.6584 36.7766 67.5926 36.9241L72.8535 37.8091C76.1476 38.35 76.9343 40.7591 74.5251 43.1683Z" fill="url(#paint2_linear_16_229)"/>
<defs>
<linearGradient id="paint0_linear_16_229" x1="67.6317" y1="88.6568" x2="108.512" y2="88.6568" gradientUnits="userSpaceOnUse">
<stop stop-color="#B224EF"/>
<stop offset="1" stop-color="#7579FF"/>
</linearGradient>
<linearGradient id="paint1_linear_16_229" x1="10.2024" y1="88.6568" x2="51.0828" y2="88.6568" gradientUnits="userSpaceOnUse">
<stop stop-color="#B224EF"/>
<stop offset="1" stop-color="#7579FF"/>
</linearGradient>
<linearGradient id="paint2_linear_16_229" x1="25.0634" y1="44.25" x2="93.8968" y2="44.25" gradientUnits="userSpaceOnUse">
<stop stop-color="#B224EF"/>
<stop offset="1" stop-color="#7579FF"/>
</linearGradient>
</defs>
</svg>
